<?xml version="1.0" standalone="no"?>
<!DOCTYPE svg PUBLIC "-//W3C//DTD SVG 20010904//EN"
 "http://www.w3.org/TR/2001/REC-SVG-20010904/DTD/svg10.dtd">
<svg version="1.0" xmlns="http://www.w3.org/2000/svg"
 width="1181.000000pt" height="1181.000000pt" viewBox="0 0 1181.000000 1181.000000"
 preserveAspectRatio="xMidYMid meet">

<g transform="translate(0.000000,1181.000000) scale(0.100000,-0.100000)"
fill="#000000" stroke="none">
<path d="M6198 9043 c-33 -3 -48 -9 -48 -18 0 -11 -8 -13 -29 -9 -15 3 -62 0
-102 -7 -41 -7 -91 -13 -111 -13 -21 0 -38 -4 -38 -8 0 -4 -13 -5 -29 -2 -17
4 -43 0 -62 -9 -41 -19 -200 -57 -239 -57 -15 0 -33 -7 -40 -15 -11 -13 -15
-13 -22 -3 -5 8 -11 9 -15 3 -5 -5 -38 -10 -75 -10 -56 -1 -67 2 -71 17 -5 16
-12 15 -86 -16 -103 -45 -121 -54 -121 -66 0 -6 -21 -20 -47 -33 -59 -27 -75
-41 -67 -60 6 -16 -61 -75 -72 -64 -3 3 3 12 15 19 22 13 29 38 11 38 -5 0
-10 -6 -10 -14 0 -7 -24 -30 -53 -50 -60 -41 -99 -49 -52 -11 43 35 22 31 -33
-7 -53 -37 -162 -91 -169 -84 -3 2 5 10 17 16 12 6 20 14 17 16 -7 7 -107 -56
-107 -66 0 -5 -16 -17 -36 -26 -20 -10 -58 -39 -85 -66 -26 -26 -53 -48 -59
-48 -5 0 -10 -4 -10 -9 0 -4 -17 -20 -38 -34 -56 -36 -165 -143 -159 -154 3
-5 -16 -29 -44 -53 -47 -40 -107 -113 -81 -96 20 12 13 -4 -19 -45 -17 -21
-37 -39 -45 -39 -7 0 -20 -13 -28 -28 -8 -16 -22 -34 -30 -41 -9 -8 -16 -23
-16 -35 0 -12 -11 -38 -25 -58 -17 -25 -20 -36 -10 -32 24 9 18 -13 -11 -39
-14 -13 -26 -31 -28 -40 -3 -21 -96 -93 -96 -75 0 8 7 23 15 36 14 20 14 21 0
16 -8 -3 -15 -1 -15 5 0 10 14 15 33 12 4 0 7 3 7 9 0 31 -48 -6 -81 -63 -16
-29 -37 -63 -45 -77 -12 -18 -12 -20 -1 -7 8 9 18 17 22 17 4 0 -15 -23 -43
-51 -35 -34 -54 -63 -58 -86 -4 -19 -13 -37 -21 -40 -17 -7 -85 -137 -91 -173
-2 -13 -7 -27 -12 -30 -4 -3 -15 -30 -24 -60 -16 -53 -55 -118 -56 -92 0 7 7
20 15 29 20 20 9 36 -15 23 -19 -10 -33 -31 -70 -107 -11 -23 -25 -45 -30 -48
-6 -3 -10 -16 -10 -29 0 -13 -25 -73 -55 -135 -30 -62 -55 -122 -55 -134 0
-26 -70 -177 -82 -177 -5 0 -11 7 -14 15 -5 13 -8 13 -20 0 -33 -32 -65 -124
-70 -201 -3 -42 -12 -96 -19 -120 -7 -24 -11 -54 -8 -65 5 -19 7 -17 20 12 10
25 16 30 22 20 7 -11 10 -10 14 5 3 13 5 9 6 -11 l2 -30 14 30 14 30 -4 -45
c-3 -25 -11 -76 -19 -115 -11 -55 -11 -73 -1 -87 16 -23 25 -13 25 29 0 22 7
37 20 45 11 7 20 20 21 28 0 8 5 2 10 -15 6 -19 5 -48 -1 -78 -14 -65 -13 -66
15 -32 13 17 24 24 25 18 0 -24 30 -13 45 17 23 44 28 37 20 -26 -4 -38 -3
-54 4 -50 6 4 9 -4 8 -21 -3 -49 25 -32 44 26 23 67 34 78 26 27 -9 -60 5 -32
53 99 24 66 49 127 55 135 6 8 20 38 30 65 10 28 26 64 36 81 10 17 17 33 14
36 -7 6 191 367 226 410 16 20 29 42 29 48 0 6 3 9 8 6 4 -2 27 28 52 67 99
161 175 271 226 325 29 31 54 61 54 65 1 33 121 168 256 287 16 14 34 34 41
45 9 15 14 17 20 8 12 -17 83 42 83 69 0 11 8 22 18 24 9 3 28 22 41 42 l24
37 -36 -30 c-89 -74 -96 -72 -22 4 81 84 127 118 179 136 16 6 34 19 40 30 15
27 27 35 52 35 13 0 24 8 27 20 3 11 13 20 22 20 10 0 28 11 41 25 20 22 26
24 43 13 17 -11 31 -7 98 27 43 22 92 49 108 60 34 24 107 44 181 50 70 5 106
15 129 36 11 10 45 29 75 43 33 16 47 26 35 27 -11 0 2 7 29 14 27 8 53 18 59
24 6 6 24 11 41 11 16 0 47 12 69 27 27 19 53 27 85 29 26 0 64 4 85 9 56 11
46 -10 -15 -31 -29 -10 -96 -28 -148 -39 l-95 -22 85 2 c48 1 91 -2 98 -8 10
-8 16 -7 24 6 6 12 16 16 28 12 11 -3 33 1 49 10 17 8 59 17 95 20 35 3 88 10
117 16 81 16 241 9 284 -14 27 -14 96 -26 89 -16 -9 15 14 10 29 -6 11 -11 28
-13 59 -9 53 6 134 -8 131 -24 -2 -6 4 -9 12 -6 9 4 22 1 30 -6 9 -7 18 -10
21 -7 13 13 -79 61 -114 60 -21 -1 -41 2 -47 7 -11 8 -14 8 -90 14 -28 3 -80
12 -115 22 -52 14 -103 18 -262 17 -109 0 -198 4 -198 8 0 9 51 14 103 11 15
-1 27 2 27 8 0 6 45 11 113 12 61 1 91 3 64 5 -62 5 -51 23 14 23 53 0 93 -15
84 -31 -4 -5 3 -9 14 -9 10 0 21 5 23 12 6 16 172 -19 198 -42 11 -9 18 -19
16 -21 -3 -2 17 -5 44 -6 26 -1 65 -9 87 -18 22 -9 44 -15 49 -13 5 1 26 -1
46 -5 28 -6 42 -16 53 -37 8 -16 31 -41 50 -56 19 -14 35 -32 35 -39 0 -11 77
-52 91 -48 4 1 24 -18 44 -42 20 -25 43 -45 50 -45 8 0 35 -18 60 -40 25 -22
51 -40 56 -40 14 0 110 -82 104 -88 -2 -3 -12 1 -22 9 -11 9 -14 10 -9 1 4 -6
21 -19 38 -28 35 -18 34 -15 -19 59 -19 26 -32 47 -29 47 4 0 25 -14 48 -30
48 -35 63 -32 22 4 -16 14 -24 25 -19 25 10 0 23 -9 126 -99 45 -39 59 -47 46
-27 -23 35 -11 35 17 0 19 -25 30 -63 18 -63 -3 0 -15 8 -26 18 -11 9 17 -25
63 -75 85 -95 100 -129 21 -47 -25 25 -58 55 -75 66 -19 14 -11 1 23 -33 121
-125 192 -209 187 -221 -3 -8 6 -25 19 -37 14 -13 30 -39 37 -58 6 -18 15 -31
19 -28 11 7 39 -34 45 -66 3 -12 10 -27 16 -33 9 -8 10 -7 4 4 -6 10 -1 8 13
-4 25 -22 30 -45 5 -25 -15 13 -15 12 -5 -6 6 -11 18 -29 26 -40 l16 -20 -6
20 c-4 15 0 13 16 -7 12 -16 30 -28 39 -28 10 0 28 -11 41 -25 26 -28 17 -34
-12 -8 -10 9 -18 11 -18 6 0 -6 7 -16 15 -23 9 -7 13 -21 10 -31 -4 -11 2 -25
14 -36 21 -18 29 -39 11 -28 -14 9 -13 -1 5 -34 8 -16 21 -31 30 -34 8 -4 15
-11 15 -17 0 -6 -5 -8 -11 -4 -12 7 -6 -20 17 -71 l13 -30 -6 30 c-3 17 -2 27
2 23 11 -10 13 -89 1 -85 -5 2 -16 25 -23 53 -8 27 -20 55 -28 63 -7 7 0 -33
19 -97 28 -101 31 -107 37 -74 l5 37 8 -40 c15 -83 16 -96 6 -90 -6 3 -10 16
-11 28 0 12 -3 16 -6 9 -6 -16 26 -162 36 -162 5 0 13 -33 19 -72 6 -40 14
-89 17 -108 3 -19 8 -62 10 -95 3 -33 10 -90 16 -127 6 -37 8 -81 4 -99 -6
-26 -4 -30 11 -27 11 2 27 19 36 38 l17 35 1 -32 c0 -23 5 -33 15 -33 8 0 15
5 15 10 0 19 19 10 26 -12 l7 -23 8 23 c5 12 15 22 24 22 18 0 19 -5 5 -31 -9
-16 -7 -19 10 -19 12 0 20 7 20 16 0 9 9 27 20 41 15 20 18 34 14 63 -4 23 -2
40 5 44 7 4 11 -1 11 -13 0 -11 5 -23 10 -26 6 -3 10 4 10 17 0 41 20 -3 21
-47 0 -22 4 -49 9 -60 7 -15 9 -9 9 26 1 36 6 50 27 68 22 19 25 29 21 58 -4
19 -4 48 0 64 4 24 7 26 19 14 8 -7 14 -26 15 -42 0 -15 4 -37 8 -47 6 -16 6
405 0 454 -5 39 2 131 10 126 13 -8 -19 137 -34 154 -7 8 -19 44 -25 80 -7 36
-24 94 -37 130 -24 63 -37 142 -35 206 1 17 -13 58 -33 97 -19 37 -35 77 -35
89 0 12 -13 42 -29 67 -16 25 -37 75 -46 111 -20 78 -30 92 -21 30 l7 -45 -22
35 c-12 19 -29 46 -38 60 -13 21 -16 22 -19 8 -5 -25 -11 -23 -47 20 -35 40
-195 168 -195 155 0 -4 33 -37 72 -74 40 -37 69 -71 65 -75 -6 -6 -187 175
-195 195 -5 15 34 7 57 -11 13 -10 34 -18 46 -18 12 0 28 -7 35 -15 7 -8 18
-15 25 -15 13 0 60 -50 81 -86 10 -16 13 -17 28 -5 9 8 18 12 19 10 2 -2 13
-20 25 -39 12 -19 22 -29 22 -22 0 38 -76 136 -136 173 -19 11 -34 28 -34 37
0 12 5 11 25 -8 14 -13 25 -20 25 -15 0 4 10 0 22 -11 19 -15 20 -16 9 -1 -17
22 -4 22 23 0 21 -16 -30 34 -114 113 -70 65 -170 174 -170 184 0 6 -5 10 -11
10 -7 0 -23 12 -36 26 -13 14 -27 24 -30 21 -3 -4 24 -39 61 -79 38 -42 61
-75 54 -77 -6 -2 -21 8 -32 23 -50 65 -105 122 -158 162 -53 41 -94 97 -83
114 3 4 -2 11 -11 14 -22 9 -23 8 -16 -16 3 -14 2 -19 -6 -14 -7 4 -12 17 -12
30 0 24 -35 64 -47 53 -3 -4 -12 -2 -20 5 -7 6 -16 8 -19 5 -4 -3 11 -14 32
-24 35 -16 60 -53 36 -53 -16 0 -102 81 -102 95 0 22 -50 64 -115 97 -68 34
-70 36 -63 43 3 3 18 1 33 -5 26 -10 27 -9 14 7 -22 29 -40 41 -116 79 -39 20
-85 49 -101 63 -45 41 -85 68 -112 76 -14 4 -35 14 -48 21 -28 18 -222 32
-222 16 0 -6 6 -13 13 -15 24 -10 -53 -7 -105 4 -31 7 -61 20 -73 33 -11 12
-16 16 -11 9 16 -24 1 -23 -28 2 -33 29 -72 34 -62 9 4 -11 1 -14 -12 -12 -9
2 -16 12 -16 21 2 20 -62 57 -99 57 -12 0 -28 5 -33 10 -6 6 -30 14 -55 19
-28 6 -35 9 -18 10 14 1 34 10 44 21 18 20 18 20 -66 18 -46 -1 -105 -3 -131
-5z m-80 -75 c10 -10 14 -10 21 0 6 10 14 10 37 2 27 -11 28 -13 11 -25 -24
-17 -94 -27 -115 -16 -15 9 -14 11 8 20 23 9 22 10 -15 11 -32 1 -36 3 -20 10
29 13 59 12 73 -2z m-100 -13 c-5 -6 -138 -35 -156 -35 -16 1 -16 1 0 10 35
21 174 42 156 25z m467 -15 l40 -20 -60 6 c-33 3 -76 8 -95 11 -33 6 -34 7
-10 14 44 13 84 9 125 -11z m-240 0 c3 -5 -1 -10 -9 -10 -9 0 -16 5 -16 10 0
6 4 10 9 10 6 0 13 -4 16 -10z m65 0 c0 -5 -7 -10 -15 -10 -8 0 -15 5 -15 10
0 6 7 10 15 10 8 0 15 -4 15 -10z m-604 -55 c-3 -10 -19 -15 -46 -15 -29 0
-40 -4 -40 -15 0 -9 -9 -15 -24 -15 l-24 0 26 30 c19 22 35 30 59 30 17 0 35
5 39 12 10 16 18 -6 10 -27z m66 9 c-18 -8 -38 -11 -44 -8 -15 9 17 23 52 22
23 0 22 -1 -8 -14z m-332 -15 c0 -5 5 -7 10 -4 6 3 10 -1 10 -9 0 -21 -18 -30
-35 -16 -9 7 -15 8 -20 0 -9 -15 -28 -12 -22 3 4 10 -2 13 -18 9 -12 -2 -26 2
-30 9 -6 9 2 11 33 6 23 -3 42 -1 42 4 0 5 7 9 15 9 8 0 15 -5 15 -11z m473 4
c-7 -2 -21 -2 -30 0 -10 3 -4 5 12 5 17 0 24 -2 18 -5z m657 -25 c0 -15 -4
-18 -22 -12 -54 16 -63 42 -13 36 27 -3 35 -9 35 -24z m-1057 15 c-7 -2 -19
-2 -25 0 -7 3 -2 5 12 5 14 0 19 -2 13 -5z m238 -16 c-1 -4 -3 -7 -6 -7 -40 0
-40 0 -25 10 16 10 32 9 31 -3z m-206 -26 c8 -14 -3 -18 -70 -26 -69 -9 -67 4
3 21 63 15 60 15 67 5z m1402 -7 c-3 -3 -12 -4 -19 -1 -8 3 -5 6 6 6 11 1 17
-2 13 -5z m-242 -14 c-3 -5 -10 -10 -16 -10 -5 0 -9 5 -9 10 0 6 7 10 16 10 8
0 12 -4 9 -10z m282 -6 c61 -5 98 -23 51 -25 -22 0 -22 -1 -3 -9 13 -5 -8 -7
-56 -6 -51 2 -84 9 -100 20 -13 9 -31 16 -41 16 -9 0 -19 4 -23 9 -5 9 14 9
172 -5z m9 -75 c3 -5 -1 -9 -10 -9 -21 0 -46 11 -46 20 0 10 49 0 56 -11z
m-1916 -44 c0 -2 -10 -10 -22 -16 -21 -11 -22 -11 -9 4 13 16 31 23 31 12z
m-144 -100 c-11 -8 -22 -12 -25 -9 -6 6 19 24 34 24 6 -1 1 -7 -9 -15z m2572
-79 c39 -27 42 -31 23 -36 -20 -5 -18 -7 14 -33 19 -15 35 -32 35 -36 0 -15
-51 1 -63 20 -7 11 -20 19 -30 19 -10 0 -20 7 -23 15 -4 8 -14 15 -24 15 -10
0 -31 5 -47 11 l-28 11 25 10 c13 5 36 6 49 3 25 -6 25 -6 8 13 -16 18 -16 19
0 19 10 0 38 -14 61 -31z m-1448 -66 c-8 -5 -26 -9 -40 -9 -23 0 -23 1 -5 9
11 5 29 9 40 9 17 1 17 -1 5 -9z m90 -30 c0 -5 -7 -10 -15 -10 -8 0 -15 5 -15
10 0 6 7 10 15 10 8 0 15 -4 15 -10z m40 -11 c0 -15 -35 -26 -60 -18 l-25 7
28 1 c17 1 27 7 27 16 0 9 6 12 15 9 8 -4 15 -10 15 -15z m-1835 -69 c4 -6 1
-18 -6 -26 -9 -12 -14 -12 -20 -3 -5 9 -21 1 -53 -29 -25 -23 -49 -42 -53 -42
-9 1 109 109 119 110 4 0 10 -5 13 -10z m2416 -15 c32 -14 79 -28 104 -32 45
-6 98 -43 62 -43 -10 0 -17 -4 -17 -9 0 -6 -12 -6 -30 0 -16 6 -30 16 -30 22
0 7 -21 20 -48 30 -71 28 -129 56 -114 56 7 1 40 -10 73 -24z m-1089 -38 c-12
-14 -82 -11 -82 4 0 5 21 9 46 9 37 0 44 -3 36 -13z m-95 -3 c-3 -3 -12 -4
-19 -1 -8 3 -5 6 6 6 11 1 17 -2 13 -5z m1428 -38 c6 -7 31 -25 57 -40 54 -31
79 -56 56 -56 -8 0 -25 11 -37 24 -13 14 -47 34 -77 46 -30 13 -54 29 -54 37
0 17 39 9 55 -11z m-1615 4 c0 -5 -11 -10 -25 -10 -14 0 -25 5 -25 10 0 6 11
10 25 10 14 0 25 -4 25 -10z m-30 -40 c0 -5 -10 -10 -22 -9 -22 0 -22 1 -3 9
11 5 21 9 23 9 1 1 2 -3 2 -9z m1606 -6 c18 -15 18 -15 -6 -9 -14 3 -33 8 -44
10 -31 7 -31 15 0 15 17 0 39 -7 50 -16z m59 -6 c14 -6 25 -15 25 -20 0 -15
-27 -8 -45 12 -21 23 -16 25 20 8z m-1670 -22 c-81 -20 -141 -28 -130 -17 11
10 105 29 150 29 22 0 17 -3 -20 -12z m15 -25 c0 -11 -59 -26 -67 -18 -3 3 10
10 28 16 19 5 35 10 37 10 1 1 2 -3 2 -8z m2546 -8 c16 -21 18 -37 4 -28 -13
8 -33 45 -24 45 4 0 13 -8 20 -17z m-566 -65 c0 -8 -20 4 -72 45 -38 30 -15
26 27 -4 25 -18 45 -36 45 -41z m698 -40 c7 -7 12 -15 12 -20 0 -12 -28 2 -34
18 -7 17 6 18 22 2z m-623 -43 c22 -19 36 -34 30 -34 -5 0 -28 15 -50 34 -22
19 -35 35 -30 35 6 0 28 -16 50 -35z m-3324 -82 c-19 -32 -69 -88 -75 -83 -3
3 13 27 35 53 42 48 57 60 40 30z m-193 -276 c-12 -17 -24 -25 -26 -19 -2 7
-8 10 -13 6 -5 -3 -9 2 -9 10 0 19 38 46 56 39 11 -4 9 -12 -8 -36z m508 -52
c-26 -19 -42 -19 -26 0 7 8 20 15 29 15 13 -1 13 -3 -3 -15z m4093 -400 c0
-13 -5 -8 -14 15 -18 46 -17 74 0 35 8 -16 14 -39 14 -50z m-5233 -303 c-14
-14 -16 -14 -16 -1 0 20 23 44 29 28 2 -6 -4 -18 -13 -27z m-26 -252 c-6 -12
-14 -20 -17 -17 -2 3 1 14 8 26 17 26 24 19 9 -9z m5369 3 c0 -25 -1 -26 -9
-8 -12 27 -12 35 0 35 6 0 10 -12 9 -27z m-5413 -90 c-18 -33 -21 -26 -6 13 6
15 13 24 16 21 3 -3 -1 -18 -10 -34z m4966 -5 c-9 -9 -12 -7 -12 12 0 19 3 21
12 12 9 -9 9 -15 0 -24z m-5062 -89 c-22 -65 -49 -122 -49 -104 0 6 8 36 19
68 11 32 19 62 18 65 -3 11 27 53 30 43 2 -5 -7 -37 -18 -72z m73 41 c-5 -19
-23 -39 -23 -25 0 9 20 45 24 45 2 0 2 -9 -1 -20z m258 -96 c-53 -104 -71
-118 -23 -17 45 93 63 125 68 120 3 -3 -17 -49 -45 -103z m-431 -129 c-15 -39
-23 -25 -8 16 6 18 13 29 15 23 2 -6 -1 -24 -7 -39z m5397 -247 c-3 -7 -5 -2
-5 12 0 14 2 19 5 13 2 -7 2 -19 0 -25z"/>
<path d="M4898 8713 c-9 -2 -19 -11 -22 -19 -4 -11 -1 -11 19 2 14 9 25 18 25
20 0 2 -1 3 -2 3 -2 -1 -10 -3 -20 -6z"/>
<path d="M7870 8239 c0 -5 5 -7 10 -4 6 3 10 8 10 11 0 2 -4 4 -10 4 -5 0 -10
-5 -10 -11z"/>
<path d="M6578 8223 c6 -2 18 -2 25 0 6 3 1 5 -13 5 -14 0 -19 -2 -12 -5z"/>
<path d="M4910 7775 c-25 -14 -39 -25 -31 -25 14 0 81 38 81 46 0 6 0 6 -50
-21z"/>
<path d="M7490 7735 c19 -19 36 -32 39 -29 3 3 -2 11 -12 18 -9 7 -17 18 -17
23 0 6 -10 13 -21 16 -18 5 -17 0 11 -28z"/>
<path d="M4826 7724 c-5 -14 -4 -15 9 -4 17 14 19 20 6 20 -5 0 -12 -7 -15
-16z"/>
<path d="M4779 7684 c-17 -21 -4 -29 21 -11 17 12 18 16 6 20 -8 3 -20 -1 -27
-9z"/>
<path d="M6806 7625 c4 -8 11 -15 16 -15 6 0 5 6 -2 15 -7 8 -14 15 -16 15 -2
0 -1 -7 2 -15z"/>
<path d="M7533 7633 c4 -6 31 -31 60 -54 28 -24 43 -33 32 -20 -24 28 -102 91
-92 74z"/>
<path d="M6870 7603 c0 -10 40 -36 46 -30 3 2 -7 12 -21 21 -14 9 -25 13 -25
9z"/>
<path d="M7983 7075 c9 -16 23 -39 32 -50 9 -11 7 -2 -6 20 -27 49 -47 72 -26
30z"/>
<path d="M8051 6930 c14 -31 19 -36 19 -24 0 6 -7 19 -16 30 -14 18 -14 18 -3
-6z"/>
<path d="M4219 6873 l-34 -38 38 34 c20 19 37 36 37 38 0 8 -8 0 -41 -34z"/>
<path d="M8622 6853 c-1 -15 1 -22 5 -17 5 5 12 11 16 15 4 3 2 11 -5 17 -11
9 -14 5 -16 -15z"/>
<path d="M5695 6091 c-82 -50 -96 -93 -96 -294 0 -89 -4 -180 -9 -201 -11 -50
-45 -83 -145 -143 -139 -84 -254 -251 -292 -427 -21 -98 -10 -195 35 -290 89
-190 260 -265 421 -185 34 17 63 30 65 28 1 -2 12 -20 24 -40 27 -44 73 -66
110 -53 81 28 96 185 88 894 -6 543 -7 565 -54 657 -37 72 -88 91 -147 54z
m-111 -936 c19 -141 13 -189 -30 -232 -35 -34 -72 -28 -98 17 -30 50 -27 130
7 204 27 58 82 136 96 136 5 0 16 -56 25 -125z"/>
<path d="M2990 6060 c0 -8 -2 -33 -5 -55 l-5 -40 15 45 c10 29 12 47 5 54 -7
7 -10 5 -10 -4z"/>
<path d="M3475 5949 c-4 -6 -5 -12 -2 -15 2 -3 7 2 10 11 7 17 1 20 -8 4z"/>
<path d="M2524 5862 c-147 -52 -309 -266 -394 -520 -21 -64 -36 -145 -55 -301
-37 -307 -32 -293 -121 -376 -83 -78 -91 -104 -50 -152 19 -22 38 -30 88 -38
72 -11 65 3 92 -175 22 -138 44 -197 91 -247 47 -49 64 -52 98 -20 39 35 49
81 56 264 8 193 13 207 80 218 79 13 161 85 161 141 0 38 -41 73 -120 102
l-75 28 3 100 c7 277 83 523 198 641 29 29 56 53 61 53 4 0 7 -42 5 -93 -3
-83 -1 -96 20 -127 50 -74 124 -73 177 1 40 54 54 116 49 202 -14 212 -193
360 -364 299z"/>
<path d="M8685 5847 c-10 -47 -10 -60 3 -64 8 -3 12 5 12 24 0 16 5 34 11 40
7 7 6 12 -5 16 -11 4 -17 -1 -21 -16z"/>
<path d="M8974 5851 c-23 -10 -53 -34 -67 -53 -33 -42 -87 -160 -87 -188 0
-24 3 -25 -55 1 -26 11 -79 23 -118 26 -237 18 -423 -128 -499 -392 -32 -115
-32 -315 0 -430 50 -175 154 -284 306 -322 56 -13 78 -14 129 -5 87 16 161 56
226 121 113 113 165 260 165 461 -1 126 -2 137 -57 343 l-24 88 35 14 c19 8
63 44 98 80 51 52 67 76 80 121 13 46 14 64 5 95 -19 61 -62 74 -137 40z
m-234 -730 c0 -135 -30 -222 -79 -229 -54 -8 -65 49 -29 145 29 80 77 153 100
153 4 0 8 -31 8 -69z"/>
<path d="M7824 5840 c-55 -22 -85 -103 -64 -173 27 -92 113 -127 179 -71 72
60 55 181 -32 234 -35 22 -50 23 -83 10z"/>
<path d="M3144 5634 c-72 -24 -159 -151 -189 -275 -34 -141 -28 -449 11 -565
46 -137 120 -236 209 -280 93 -45 206 -25 299 53 l30 25 18 -88 c66 -337 174
-445 282 -282 55 83 63 131 77 477 14 352 10 403 -41 507 -50 101 -106 137
-181 115 -68 -21 -106 -64 -171 -199 -59 -123 -119 -205 -158 -215 -80 -21
-103 158 -50 396 33 149 37 223 15 271 -27 56 -89 81 -151 60z"/>
<path d="M6356 5599 c-155 -53 -272 -186 -338 -384 -68 -203 -38 -436 69 -537
118 -112 329 -82 478 66 l42 43 7 -81 c9 -113 23 -155 61 -193 54 -54 115 -37
135 38 13 48 -5 665 -21 738 -12 54 -29 88 -91 178 -95 138 -203 180 -342 132z
m198 -295 c38 -37 -1 -149 -79 -231 -45 -46 -81 -56 -109 -27 -40 40 2 162 81
234 46 43 81 51 107 24z"/>
<path d="M4160 5558 c-97 -66 -156 -225 -181 -486 -26 -274 4 -446 93 -534 40
-41 53 -48 86 -48 80 0 127 93 141 280 l8 101 59 60 c108 109 210 138 278 79
44 -39 57 -80 96 -295 17 -93 42 -204 56 -246 31 -96 87 -178 137 -202 35 -18
39 -18 62 -3 63 41 79 134 65 370 -18 294 -71 523 -151 647 -109 168 -316 179
-515 28 l-62 -46 -11 89 c-19 145 -59 228 -112 228 -9 0 -31 -10 -49 -22z"/>
<path d="M9224 5538 c-94 -86 -145 -250 -164 -519 -15 -226 8 -373 72 -458 30
-40 80 -71 114 -71 76 0 121 88 134 263 9 122 21 145 113 219 90 71 162 87
223 49 48 -29 70 -90 104 -281 47 -267 76 -353 148 -432 47 -52 74 -62 112
-43 53 27 65 84 64 290 -1 258 -35 464 -103 632 -69 174 -189 252 -340 223
-75 -14 -167 -57 -228 -107 -29 -24 -55 -43 -58 -43 -3 0 -5 20 -5 44 0 52
-25 177 -41 209 -20 39 -52 67 -76 67 -14 0 -42 -17 -69 -42z"/>
<path d="M7273 5545 c-165 -45 -293 -175 -348 -355 -9 -32 -19 -108 -22 -180
-13 -296 92 -497 274 -526 90 -14 238 57 312 150 42 53 56 99 55 191 0 100
-20 145 -63 145 -23 0 -45 -17 -112 -88 -105 -110 -140 -136 -168 -127 -52 16
-66 115 -30 212 41 110 151 258 227 305 35 21 36 21 46 3 6 -11 25 -34 43 -52
26 -28 38 -33 77 -33 83 0 118 58 96 159 -17 75 -32 102 -80 144 -72 61 -195
82 -307 52z"/>
<path d="M7854 5481 c-45 -28 -71 -65 -83 -122 -6 -27 -14 -175 -17 -327 -6
-301 3 -398 46 -486 35 -74 102 -83 158 -23 32 34 40 65 63 240 41 316 5 652
-79 717 -31 25 -49 25 -88 1z"/>
<path d="M6196 3986 c-120 -30 -173 -48 -183 -62 -12 -16 -13 -61 -8 -269 3
-137 10 -320 15 -405 4 -87 4 -181 -1 -215 -5 -33 -13 -118 -18 -190 -5 -71
-16 -156 -26 -188 -9 -32 -14 -65 -11 -73 15 -39 270 -113 422 -121 150 -9
283 31 421 125 87 59 99 78 147 213 67 191 89 291 83 374 -12 160 -70 245
-216 318 -71 35 -95 42 -158 46 -41 2 -102 -2 -135 -9 -33 -6 -63 -8 -66 -5
-4 4 -10 111 -13 238 -3 128 -9 240 -13 250 -12 25 -50 21 -240 -27z m454
-718 c102 -52 144 -99 171 -190 29 -93 22 -113 -46 -144 -78 -36 -159 -45
-256 -30 -44 7 -84 17 -89 22 -7 7 -5 55 5 140 8 71 15 148 15 171 0 23 5 45
12 49 11 7 65 20 95 23 6 0 48 -18 93 -41z"/>
</g>
</svg>
